<svg width="465" height="284" viewBox="0 0 465 284" xmlns="http://www.w3.org/2000/svg" xmlns:xlink="http://www.w3.org/1999/xlink"><title>DATA61_CSIRO_OnWhite_RGB</title><defs><path id="a" d="M.06.535V284h267.405V.534H.06z"/></defs><g fill="none" fill-rule="evenodd"><path d="M85.28 123.662c0 2.826-1.727 4.55-4.553 4.55h-16.72V86.14h16.72c2.826 0 4.553 1.727 4.553 4.552v32.97zm-3.218-42.626H59.914c-.774 0-1.402.627-1.402 1.402v49.476c0 .774.628 1.402 1.402 1.402h22.148c5.023 0 8.712-3.69 8.712-8.712V89.75c0-5.1-3.69-8.714-8.712-8.714zM112.634 151.122H95.87c-.775 0-1.403.628-1.403 1.4v5.442c0 .774.628 1.4 1.402 1.4h9.138V202c0 .774.628 1.402 1.402 1.402h6.224c.774 0 1.4-.628 1.4-1.402v-49.477c0-.773-.626-1.4-1.4-1.4M80.413 193.12c0 1.176-.942 2.04-2.12 2.04H69.66c-1.18 0-2.12-.864-2.12-2.04v-6.987c0-1.178.628-2.12 2.12-2.59 1.883-.63 6.67-1.572 8.633-1.572 1.334 0 2.12.866 2.12 2.044v9.105zm.706-19.702c-3.847 0-9.342.942-13.58 2.275v-14.288c0-1.178.94-2.04 2.12-2.04h15.104c.774 0 1.4-.627 1.4-1.4v-5.442c0-.773-.626-1.4-1.4-1.4h-17.93c-4.633 0-8.322 3.69-8.322 8.242v35.796c0 4.552 3.61 8.242 8.164 8.242H81.12c4.63 0 8.32-3.69 8.32-8.24v-13.503c0-4.554-2.983-8.242-8.32-8.242zM170.255 81.036H136.4c-.773 0-1.4.627-1.4 1.402v2.3c0 .774.627 1.4 1.4 1.4h14.22v45.776c0 .774.628 1.402 1.402 1.402h2.69c.775 0 1.403-.628 1.403-1.402V86.14h14.14c.774 0 1.402-.628 1.402-1.403v-2.3c0-.774-.628-1.4-1.402-1.4M109.482 114.792l8.79-26.925 8.714 26.925h-17.504zm28.795 16.672l-17.09-49.492c-.194-.542-.714-.936-1.323-.936h-3.183c-.608 0-1.127.394-1.32.936l-17.087 49.483c-.05.145-.085.296-.085.46 0 .773.627 1.4 1.4 1.4h2.606c.602 0 1.112-.383 1.31-.915l.006.002 4.244-12.59h20.88l4.376 12.546v-.003c.187.555.71.96 1.328.96h2.614c.774 0 1.402-.627 1.402-1.4 0-.16-.028-.308-.077-.45zM180.177 114.792l8.79-26.925 8.714 26.925h-17.503zm28.795 16.672l-17.09-49.492c-.194-.542-.714-.936-1.323-.936h-3.184c-.61 0-1.128.394-1.322.936L168.81 131.37l.158.085c-.05.145-.085.296-.085.46 0 .773.627 1.4 1.402 1.4h2.604c.6 0 1.11-.383 1.31-.915l.005.002 4.244-12.59h20.88l4.375 12.546v-.003c.187.555.71.96 1.328.96h2.613c.775 0 1.402-.627 1.402-1.4 0-.16-.027-.308-.076-.45z" fill="#FF3D09"/><mask id="b" fill="#fff"><use xlink:href="#a"/></mask><path d="M266.437 89.174h.002l-5.016-2.897c-.32-.188-.695-.296-1.093-.296-.402 0-.78.113-1.104.305l-5.003 2.888h.004c-.604.384-1.03 1.03-1.03 1.798v102.582c0 .767.425 1.414 1.03 1.796h-.004l5.015 2.897c.32.188.695.296 1.093.296.404 0 .783-.11 1.107-.302l5.002-2.89h-.004c.603-.382 1.03-1.03 1.03-1.796V90.972c0-.768-.426-1.415-1.03-1.798M21.405 53.887l-.002-.002v5.79c-.003.373.09.75.29 1.095.202.35.488.622.816.806l5.002 2.888-.002-.003c.634.332 1.407.378 2.07-.007l88.84-51.29c.664-.383 1.01-1.075 1.04-1.79l.003.003V5.584c.003-.37-.09-.75-.29-1.094-.2-.35-.487-.622-.815-.806L113.354.797l.002.003c-.633-.33-1.406-.377-2.07.007-10.01 5.778-88.812 51.275-88.84 51.29-.663.384-1.01 1.076-1.04 1.79M27.51 220.07v-.002l.002-.002-5.016 2.896c-.323.183-.603.454-.803.8-.2.347-.295.73-.29 1.107v5.776l.002-.003c.03.714.378 1.407 1.042 1.79l88.838 51.29c.665.384 1.437.34 2.07.008v.004l5.016-2.895c.324-.185.604-.455.803-.8.202-.35.295-.734.29-1.11v-5.776l-.002.003c-.03-.715-.376-1.406-1.04-1.79l-88.84-51.29c-.663-.384-1.436-.34-2.07-.008M148.004 273.16l-.002-.002v5.792c-.003.37.09.75.29 1.094.2.35.487.622.815.805l5.003 2.888-.002-.003c.634.33 1.407.376 2.072-.008l88.838-51.29c.665-.383 1.01-1.075 1.042-1.79l.002.003v-5.792c.002-.37-.09-.75-.29-1.094-.202-.35-.488-.622-.816-.805l-5.003-2.89.002.003c-.634-.33-1.406-.376-2.07.008-10.01 5.78-88.813 51.276-88.84 51.29-.664.385-1.01 1.076-1.04 1.79M13.24 89.174h.002l-5.015-2.897c-.32-.188-.695-.296-1.093-.296-.403 0-.782.113-1.106.305l-5.002 2.888h.003C.425 89.558 0 90.204 0 90.972v102.582c0 .767.425 1.414 1.03 1.796h-.004l5.016 2.897c.32.188.694.296 1.092.296.403 0 .783-.11 1.106-.302l5.002-2.89h-.003c.603-.382 1.028-1.03 1.028-1.796V90.972c0-.768-.425-1.415-1.03-1.798" fill="#FF3D3D" mask="url(#b)"/><path d="M266.436 89.174h.003l-5.016-2.897c-.32-.188-.695-.296-1.093-.296-.402 0-.78.113-1.104.305l-5.003 2.888h.004c-.605.384-1.03 1.03-1.03 1.798v102.582c0 .767.425 1.414 1.03 1.796h-.004l5.015 2.897c.32.188.695.296 1.093.296.404 0 .783-.11 1.107-.302l5.002-2.89h-.004c.603-.382 1.03-1.03 1.03-1.796V90.972c0-.768-.426-1.415-1.03-1.798M13.24 89.174h.002l-5.015-2.897c-.32-.188-.695-.296-1.093-.296-.403 0-.782.113-1.106.305l-5.002 2.888h.003C.425 89.558 0 90.204 0 90.972v102.582c0 .767.425 1.414 1.03 1.796h-.004l5.016 2.897c.32.188.694.296 1.092.296.403 0 .783-.11 1.106-.302l5.002-2.89h-.003c.603-.382 1.028-1.03 1.028-1.796V90.972c0-.768-.425-1.415-1.03-1.798" fill="#FF3D3D" mask="url(#b)"/><path d="M430.203 163.398c-4.274 0-7.234 3.377-7.234 7.513v.072c0 4.128 3.028 7.58 7.304 7.58 4.272 0 7.236-3.378 7.236-7.513v-.068c0-4.135-3.033-7.584-7.307-7.584M404.15 163.71h-5.27v6.928h5.374c2.587 0 4.06-1.378 4.06-3.413v-.068c0-2.275-1.58-3.446-4.163-3.446" fill="#FF3D09"/><path d="M430.203 183.45c-7.44 0-12.78-5.54-12.78-12.4v-.068c0-6.86 5.41-12.477 12.85-12.477 7.444 0 12.78 5.55 12.78 12.406v.072c0 6.854-5.41 12.468-12.85 12.468zm-15.072-56.028v-21.967c0-2.135 1.735-3.867 3.868-3.867 2.136 0 3.863 1.732 3.863 3.867v21.967c0 2.13-1.726 3.864-3.862 3.864-2.133 0-3.867-1.734-3.867-3.864zm-6.914 55.615l-5.17-7.71h-4.165v7.71h-5.306V158.92h11.024c5.68 0 9.093 3 9.093 7.96v.07c0 3.89-2.095 6.34-5.165 7.476l5.893 8.61h-6.202zm-18.99-51.906V98.03c0-2.133 1.73-3.867 3.87-3.867 2.132 0 3.864 1.735 3.864 3.868v33.103c0 2.133-1.732 3.867-3.864 3.867-2.14 0-3.87-1.734-3.87-3.866zm16.82 11.294c2.308 0 4.18 1.87 4.18 4.173 0 2.307-1.872 4.173-4.18 4.173-2.306 0-4.176-1.866-4.176-4.173 0-2.304 1.87-4.173 4.176-4.173zm-3.867-55.532c0-2.137 1.732-3.867 3.866-3.867 2.138 0 3.864 1.73 3.864 3.867v47.95c0 2.133-1.726 3.87-3.864 3.87-2.134 0-3.867-1.737-3.867-3.87v-47.95zm-15.394 83.746v12.4h-5.305V158.92h5.306v11.718zm-10.515-50.646v-33.1c0-2.137 1.736-3.867 3.87-3.867 2.132 0 3.865 1.73 3.865 3.867v33.1c0 2.138-1.733 3.867-3.864 3.867-2.134 0-3.87-1.73-3.87-3.868zm-.658 55.915c0 4.795-3.65 7.476-8.853 7.476-3.653 0-7.336-1.274-10.23-3.86l3.13-3.756c2.17 1.793 4.447 2.932 7.208 2.932 2.17 0 3.476-.864 3.476-2.276v-.067c0-1.35-.83-2.036-4.86-3.067-4.85-1.242-7.994-2.59-7.994-7.375v-.07c0-4.372 3.515-7.27 8.44-7.27 3.516 0 6.52 1.1 8.96 3.07l-2.756 3.994c-2.133-1.482-4.235-2.38-6.272-2.38-2.03 0-3.1.93-3.1 2.103v.076c0 1.58 1.033 2.09 5.204 3.157 4.892 1.28 7.646 3.037 7.646 7.244v.067zm-25.243-48.485v-21.967c0-2.135 1.73-3.867 3.866-3.867 2.134 0 3.863 1.732 3.863 3.867v21.967c0 2.13-1.73 3.864-3.864 3.864-2.136 0-3.867-1.734-3.867-3.864zm-7.195 56.028c-7.094 0-12.367-5.477-12.367-12.4v-.068c0-6.86 5.165-12.477 12.574-12.477 4.554 0 7.27 1.523 9.512 3.724l-3.377 3.89c-1.866-1.684-3.756-2.722-6.17-2.722-4.063 0-6.995 3.377-6.995 7.513v.072c0 4.128 2.863 7.58 6.995 7.58 2.762 0 4.446-1.104 6.34-2.83l3.378 3.415c-2.48 2.65-5.237 4.303-9.89 4.303zm20.143-89.135c0-2.135 1.733-3.867 3.87-3.867 2.133 0 3.868 1.732 3.868 3.867v29.39c0 2.135-1.735 3.87-3.868 3.87-2.137 0-3.87-1.735-3.87-3.87v-29.39zm23.614-30c-43.055 0-77.955 34.896-77.955 77.95 0 43.056 34.9 77.955 77.955 77.955 43.053 0 77.954-34.9 77.954-77.955 0-43.054-34.9-77.95-77.954-77.95z" fill="#FF3D3D"/></g></svg>